STARTFONT 2.1
FONT -Monotype-Arial Narrow-Bold-R-Normal--17-120-100-100-P-65-iso8859-9
SIZE 12 100 100
FONTBOUNDINGBOX 17 21 -2 -5

STARTPROPERTIES 24
FOUNDRY "Monotype"
FAMILY_NAME "Arial Narrow"
WEIGHT_NAME "Bold"
SLANT "R"
SETWIDTH_NAME "Normal"
ADD_STYLE_NAME ""
PIXEL_SIZE 17
POINT_SIZE 120
RESOLUTION_X 100
RESOLUTION_Y 100
SPACING "P"
AVERAGE_WIDTH 65
CHARSET_REGISTRY "iso8859"
CHARSET_ENCODING "9"
FACE_NAME "Arial Narrow Bold ISO Latin5"
_DEC_DEVICE_FONTNAMES "PS=arialnarrow-b-lat5"
COPYRIGHT "Copyright (c) 1994 Monotype Typography Ltd."
CAP_HEIGHT 15
X_HEIGHT 10
WEIGHT 10
QUAD_WIDTH 9
DEFAULT_CHAR 160
FONT_DESCENT 5
FONT_ASCENT 16
ENDPROPERTIES

CHARS 191

STARTCHAR space
ENCODING 32
SWIDTH 228 0
DWIDTH 4 0
BBX 0 0 0 0
BITMAP
ENDCHAR

STARTCHAR exclam
ENCODING 33
SWIDTH 273 0
DWIDTH 4 0
BBX 2 12 1 0
BITMAP
C0
C0
C0
C0
C0
C0
C0
C0
C0
00
C0
C0
ENDCHAR

STARTCHAR quotedbl
ENCODING 34
SWIDTH 389 0
DWIDTH 7 0
BBX 5 5 1 7
BITMAP
D8
D8
D8
D8
D8
ENDCHAR

STARTCHAR numbersign
ENCODING 35
SWIDTH 456 0
DWIDTH 8 0
BBX 8 12 0 0
BITMAP
36
36
36
FF
FF
6C
6C
FF
FF
6C
6C
6C
ENDCHAR

STARTCHAR dollar
ENCODING 36
SWIDTH 456 0
DWIDTH 8 0
BBX 7 15 1 -2
BITMAP
10
3C
7E
D6
D0
70
78
1C
16
D6
D6
7C
38
10
10
ENDCHAR

STARTCHAR percent
ENCODING 37
SWIDTH 729 0
DWIDTH 12 0
BBX 12 12 0 0
BITMAP
20C0
70C0
D980
D980
DB00
7340
26E0
07B0
0DB0
0DB0
18E0
1840
ENDCHAR

STARTCHAR ampersand
ENCODING 38
SWIDTH 592 0
DWIDTH 10 0
BBX 9 12 1 0
BITMAP
3800
7C00
6600
6600
3C00
3800
7D80
CF00
C700
C700
7F80
3980
ENDCHAR

STARTCHAR quoteright
ENCODING 39
SWIDTH 228 0
DWIDTH 4 0
BBX 2 5 1 7
BITMAP
C0
C0
40
40
80
ENDCHAR

STARTCHAR parenleft
ENCODING 40
SWIDTH 273 0
DWIDTH 5 0
BBX 4 16 1 -4
BITMAP
30
60
60
60
C0
C0
C0
C0
C0
C0
C0
C0
60
60
60
30
ENDCHAR

STARTCHAR parenright
ENCODING 41
SWIDTH 273 0
DWIDTH 5 0
BBX 4 16 0 -4
BITMAP
C0
60
60
60
30
30
30
30
30
30
30
30
60
60
60
C0
ENDCHAR

STARTCHAR asterisk
ENCODING 42
SWIDTH 319 0
DWIDTH 5 0
BBX 5 6 0 6
BITMAP
20
A8
F8
70
F8
D8
ENDCHAR

STARTCHAR plus
ENCODING 43
SWIDTH 479 0
DWIDTH 8 0
BBX 6 8 1 2
BITMAP
30
30
30
FC
FC
30
30
30
ENDCHAR

STARTCHAR comma
ENCODING 44
SWIDTH 228 0
DWIDTH 4 0
BBX 2 5 1 -3
BITMAP
C0
C0
40
40
80
ENDCHAR

STARTCHAR minus
ENCODING 45
SWIDTH 479 0
DWIDTH 8 0
BBX 6 2 1 5
BITMAP
FC
FC
ENDCHAR

STARTCHAR period
ENCODING 46
SWIDTH 228 0
DWIDTH 4 0
BBX 2 2 1 0
BITMAP
C0
C0
ENDCHAR

STARTCHAR slash
ENCODING 47
SWIDTH 228 0
DWIDTH 4 0
BBX 4 13 0 -1
BITMAP
30
30
30
30
30
60
60
60
C0
C0
C0
C0
C0
ENDCHAR

STARTCHAR zero
ENCODING 48
SWIDTH 456 0
DWIDTH 8 0
BBX 6 12 1 0
BITMAP
30
78
CC
CC
CC
CC
CC
CC
CC
CC
78
30
ENDCHAR

STARTCHAR one
ENCODING 49
SWIDTH 456 0
DWIDTH 8 0
BBX 4 12 2 0
BITMAP
30
70
F0
B0
30
30
30
30
30
30
30
30
ENDCHAR

STARTCHAR two
ENCODING 50
SWIDTH 456 0
DWIDTH 8 0
BBX 6 12 1 0
BITMAP
78
FC
CC
CC
0C
18
18
30
60
C0
FC
FC
ENDCHAR

STARTCHAR three
ENCODING 51
SWIDTH 456 0
DWIDTH 8 0
BBX 6 12 1 0
BITMAP
30
78
CC
CC
0C
38
38
0C
CC
CC
78
30
ENDCHAR

STARTCHAR four
ENCODING 52
SWIDTH 456 0
DWIDTH 8 0
BBX 7 12 1 0
BITMAP
0C
1C
3C
3C
6C
6C
CC
FE
FE
0C
0C
0C
ENDCHAR

STARTCHAR five
ENCODING 53
SWIDTH 456 0
DWIDTH 8 0
BBX 6 12 1 0
BITMAP
FC
FC
C0
C0
F8
FC
CC
0C
0C
CC
F8
70
ENDCHAR

STARTCHAR six
ENCODING 54
SWIDTH 456 0
DWIDTH 8 0
BBX 6 12 1 0
BITMAP
38
7C
CC
C0
D8
FC
CC
CC
CC
CC
78
30
ENDCHAR

STARTCHAR seven
ENCODING 55
SWIDTH 456 0
DWIDTH 8 0
BBX 7 12 1 0
BITMAP
FE
FE
0C
18
18
30
30
30
60
60
60
60
ENDCHAR

STARTCHAR eight
ENCODING 56
SWIDTH 456 0
DWIDTH 8 0
BBX 6 12 1 0
BITMAP
30
78
CC
CC
CC
78
78
CC
CC
CC
78
30
ENDCHAR

STARTCHAR nine
ENCODING 57
SWIDTH 456 0
DWIDTH 8 0
BBX 6 12 1 0
BITMAP
30
78
CC
CC
CC
CC
FC
6C
0C
CC
F8
70
ENDCHAR

STARTCHAR colon
ENCODING 58
SWIDTH 273 0
DWIDTH 5 0
BBX 2 9 2 0
BITMAP
C0
C0
00
00
00
00
00
C0
C0
ENDCHAR

STARTCHAR semicolon
ENCODING 59
SWIDTH 273 0
DWIDTH 5 0
BBX 2 12 2 -3
BITMAP
C0
C0
00
00
00
00
00
C0
C0
40
40
80
ENDCHAR

STARTCHAR less
ENCODING 60
SWIDTH 479 0
DWIDTH 8 0
BBX 7 10 0 1
BITMAP
02
0E
3C
70
C0
C0
70
3C
0E
02
ENDCHAR

STARTCHAR equal
ENCODING 61
SWIDTH 479 0
DWIDTH 8 0
BBX 7 6 1 3
BITMAP
FE
FE
00
00
FE
FE
ENDCHAR

STARTCHAR greater
ENCODING 62
SWIDTH 479 0
DWIDTH 8 0
BBX 7 10 1 1
BITMAP
80
E0
78
1C
06
06
1C
78
E0
80
ENDCHAR

STARTCHAR question
ENCODING 63
SWIDTH 501 0
DWIDTH 9 0
BBX 8 12 1 0
BITMAP
3C
7E
63
C3
07
0E
1C
18
18
00
18
18
ENDCHAR

STARTCHAR at
ENCODING 64
SWIDTH 800 0
DWIDTH 14 0
BBX 14 16 0 -4
BITMAP
0FC0
1FE0
3030
6758
CCCC
CCCC
D8CC
D8CC
D8D8
D998
CFF0
C6E0
6018
3018
1FF0
0FE0
ENDCHAR

STARTCHAR A
ENCODING 65
SWIDTH 592 0
DWIDTH 10 0
BBX 10 12 0 0
BITMAP
0C00
0C00
1E00
1E00
3300
3300
3300
7F80
7F80
6180
C0C0
C0C0
ENDCHAR

STARTCHAR B
ENCODING 66
SWIDTH 592 0
DWIDTH 10 0
BBX 8 12 1 0
BITMAP
FC
FE
C3
C3
C3
FE
FF
C3
C3
C3
FE
FC
ENDCHAR

STARTCHAR C
ENCODING 67
SWIDTH 592 0
DWIDTH 10 0
BBX 8 12 1 0
BITMAP
3C
7E
66
C3
C0
C0
C0
C0
C3
66
7E
3C
ENDCHAR

STARTCHAR D
ENCODING 68
SWIDTH 592 0
DWIDTH 10 0
BBX 8 12 1 0
BITMAP
FC
FE
C6
C3
C3
C3
C3
C3
C3
C6
FE
FC
ENDCHAR

STARTCHAR E
ENCODING 69
SWIDTH 547 0
DWIDTH 9 0
BBX 7 12 1 0
BITMAP
FE
FE
C0
C0
C0
FE
FE
C0
C0
C0
FE
FE
ENDCHAR

STARTCHAR F
ENCODING 70
SWIDTH 501 0
DWIDTH 9 0
BBX 7 12 1 0
BITMAP
FE
FE
C0
C0
C0
FC
FC
C0
C0
C0
C0
C0
ENDCHAR

STARTCHAR G
ENCODING 71
SWIDTH 638 0
DWIDTH 11 0
BBX 9 12 1 0
BITMAP
3E00
7F00
6300
C180
C000
C000
C780
C780
C180
6180
7F00
3E00
ENDCHAR

STARTCHAR H
ENCODING 72
SWIDTH 592 0
DWIDTH 10 0
BBX 8 12 1 0
BITMAP
C3
C3
C3
C3
C3
FF
FF
C3
C3
C3
C3
C3
ENDCHAR

STARTCHAR I
ENCODING 73
SWIDTH 228 0
DWIDTH 4 0
BBX 2 12 1 0
BITMAP
C0
C0
C0
C0
C0
C0
C0
C0
C0
C0
C0
C0
ENDCHAR

STARTCHAR J
ENCODING 74
SWIDTH 456 0
DWIDTH 8 0
BBX 6 12 1 0
BITMAP
0C
0C
0C
0C
0C
0C
0C
0C
CC
DC
F8
70
ENDCHAR

STARTCHAR K
ENCODING 75
SWIDTH 592 0
DWIDTH 10 0
BBX 9 12 1 0
BITMAP
C380
C700
CE00
DC00
D800
F800
FC00
EE00
C600
C700
C300
C380
ENDCHAR

STARTCHAR L
ENCODING 76
SWIDTH 501 0
DWIDTH 9 0
BBX 7 12 1 0
BITMAP
C0
C0
C0
C0
C0
C0
C0
C0
C0
C0
FE
FE
ENDCHAR

STARTCHAR M
ENCODING 77
SWIDTH 683 0
DWIDTH 12 0
BBX 10 12 1 0
BITMAP
E1C0
E1C0
F3C0
F3C0
D2C0
D2C0
DEC0
DEC0
CCC0
CCC0
CCC0
CCC0
ENDCHAR

STARTCHAR N
ENCODING 78
SWIDTH 592 0
DWIDTH 10 0
BBX 8 12 1 0
BITMAP
C3
E3
E3
F3
FB
DB
DF
CF
CF
C7
C7
C3
ENDCHAR

STARTCHAR O
ENCODING 79
SWIDTH 638 0
DWIDTH 11 0
BBX 9 12 1 0
BITMAP
3E00
7F00
6300
C180
C180
C180
C180
C180
C180
6300
7F00
3E00
ENDCHAR

STARTCHAR P
ENCODING 80
SWIDTH 547 0
DWIDTH 9 0
BBX 7 12 1 0
BITMAP
F8
FC
C6
C6
C6
FC
F8
C0
C0
C0
C0
C0
ENDCHAR

STARTCHAR Q
ENCODING 81
SWIDTH 638 0
DWIDTH 11 0
BBX 10 13 1 -1
BITMAP
3E00
7F00
6300
C180
C180
C180
C180
C180
C580
6300
7F00
3F80
00C0
ENDCHAR

STARTCHAR R
ENCODING 82
SWIDTH 592 0
DWIDTH 10 0
BBX 9 12 1 0
BITMAP
FC00
FE00
C700
C300
C600
FC00
FC00
CC00
C600
C700
C300
C380
ENDCHAR

STARTCHAR S
ENCODING 83
SWIDTH 547 0
DWIDTH 9 0
BBX 7 12 1 0
BITMAP
3C
7E
C6
C6
E0
78
3C
0E
C6
C6
FC
78
ENDCHAR

STARTCHAR T
ENCODING 84
SWIDTH 501 0
DWIDTH 8 0
BBX 8 12 0 0
BITMAP
FF
FF
18
18
18
18
18
18
18
18
18
18
ENDCHAR

STARTCHAR U
ENCODING 85
SWIDTH 592 0
DWIDTH 10 0
BBX 8 12 1 0
BITMAP
C3
C3
C3
C3
C3
C3
C3
C3
C3
E7
7E
3C
ENDCHAR

STARTCHAR V
ENCODING 86
SWIDTH 547 0
DWIDTH 9 0
BBX 9 12 0 0
BITMAP
C180
C180
C180
6300
6300
6300
3600
3600
3600
1C00
1C00
1C00
ENDCHAR

STARTCHAR W
ENCODING 87
SWIDTH 774 0
DWIDTH 13 0
BBX 13 12 0 0
BITMAP
C718
C718
C718
6730
6DB0
6DB0
6DB0
6DB0
38E0
38E0
38E0
38E0
ENDCHAR

STARTCHAR X
ENCODING 88
SWIDTH 547 0
DWIDTH 9 0
BBX 9 12 0 0
BITMAP
C180
E380
7700
3600
1E00
1C00
1C00
3E00
3600
7700
E380
C180
ENDCHAR

STARTCHAR Y
ENCODING 89
SWIDTH 547 0
DWIDTH 8 0
BBX 8 12 0 0
BITMAP
C3
C3
66
66
3C
3C
18
18
18
18
18
18
ENDCHAR

STARTCHAR Z
ENCODING 90
SWIDTH 501 0
DWIDTH 10 0
BBX 8 12 1 0
BITMAP
7F
7F
07
0E
0C
1C
38
30
70
E0
FF
FF
ENDCHAR

STARTCHAR bracketleft
ENCODING 91
SWIDTH 273 0
DWIDTH 5 0
BBX 4 16 1 -4
BITMAP
F0
F0
C0
C0
C0
C0
C0
C0
C0
C0
C0
C0
C0
C0
F0
F0
ENDCHAR

STARTCHAR backslash
ENCODING 92
SWIDTH 228 0
DWIDTH 4 0
BBX 4 13 0 -1
BITMAP
C0
C0
C0
C0
C0
60
60
60
30
30
30
30
30
ENDCHAR

STARTCHAR bracketright
ENCODING 93
SWIDTH 273 0
DWIDTH 5 0
BBX 4 16 0 -4
BITMAP
F0
F0
30
30
30
30
30
30
30
30
30
30
30
30
F0
F0
ENDCHAR

STARTCHAR asciicircum
ENCODING 94
SWIDTH 479 0
DWIDTH 8 0
BBX 6 7 1 5
BITMAP
18
18
38
6C
6C
CC
CC
ENDCHAR

STARTCHAR underscore
ENCODING 95
SWIDTH 456 0
DWIDTH 8 0
BBX 8 2 0 -3
BITMAP
FF
FF
ENDCHAR

STARTCHAR quoteleft
ENCODING 96
SWIDTH 228 0
DWIDTH 4 0
BBX 2 5 1 7
BITMAP
40
80
80
C0
C0
ENDCHAR

STARTCHAR a
ENCODING 97
SWIDTH 456 0
DWIDTH 8 0
BBX 6 9 1 0
BITMAP
38
7C
CC
1C
7C
CC
DC
FC
6C
ENDCHAR

STARTCHAR b
ENCODING 98
SWIDTH 501 0
DWIDTH 9 0
BBX 7 12 1 0
BITMAP
C0
C0
C0
D8
FC
EE
C6
C6
C6
EE
FC
D8
ENDCHAR

STARTCHAR c
ENCODING 99
SWIDTH 456 0
DWIDTH 8 0
BBX 6 9 1 0
BITMAP
38
7C
EC
C0
C0
C0
EC
7C
38
ENDCHAR

STARTCHAR d
ENCODING 100
SWIDTH 501 0
DWIDTH 9 0
BBX 7 12 1 0
BITMAP
06
06
06
36
7E
EE
C6
C6
C6
EE
7E
36
ENDCHAR

STARTCHAR e
ENCODING 101
SWIDTH 456 0
DWIDTH 8 0
BBX 6 9 1 0
BITMAP
30
78
CC
CC
FC
C0
EC
7C
38
ENDCHAR

STARTCHAR f
ENCODING 102
SWIDTH 273 0
DWIDTH 4 0
BBX 5 12 0 0
BITMAP
38
78
60
F0
F0
60
60
60
60
60
60
60
ENDCHAR

STARTCHAR g
ENCODING 103
SWIDTH 501 0
DWIDTH 9 0
BBX 7 12 1 -3
BITMAP
36
7E
EE
C6
C6
C6
EE
7E
36
CE
FC
38
ENDCHAR

STARTCHAR h
ENCODING 104
SWIDTH 501 0
DWIDTH 9 0
BBX 7 12 1 0
BITMAP
C0
C0
C0
DC
FE
E6
C6
C6
C6
C6
C6
C6
ENDCHAR

STARTCHAR i
ENCODING 105
SWIDTH 228 0
DWIDTH 4 0
BBX 2 12 1 0
BITMAP
C0
C0
00
C0
C0
C0
C0
C0
C0
C0
C0
C0
ENDCHAR

STARTCHAR j
ENCODING 106
SWIDTH 228 0
DWIDTH 4 0
BBX 4 15 -1 -3
BITMAP
30
30
00
30
30
30
30
30
30
30
30
30
30
F0
E0
ENDCHAR

STARTCHAR k
ENCODING 107
SWIDTH 456 0
DWIDTH 8 0
BBX 7 12 1 0
BITMAP
C0
C0
C0
CE
DC
F8
F0
F8
D8
DC
CC
CE
ENDCHAR

STARTCHAR l
ENCODING 108
SWIDTH 228 0
DWIDTH 4 0
BBX 2 12 1 0
BITMAP
C0
C0
C0
C0
C0
C0
C0
C0
C0
C0
C0
C0
ENDCHAR

STARTCHAR m
ENCODING 109
SWIDTH 729 0
DWIDTH 12 0
BBX 10 9 1 0
BITMAP
DD80
FFC0
EEC0
CCC0
CCC0
CCC0
CCC0
CCC0
CCC0
ENDCHAR

STARTCHAR n
ENCODING 110
SWIDTH 501 0
DWIDTH 9 0
BBX 7 9 1 0
BITMAP
DC
FE
E6
C6
C6
C6
C6
C6
C6
ENDCHAR

STARTCHAR o
ENCODING 111
SWIDTH 501 0
DWIDTH 9 0
BBX 7 9 1 0
BITMAP
38
7C
EE
C6
C6
C6
EE
7C
38
ENDCHAR

STARTCHAR p
ENCODING 112
SWIDTH 501 0
DWIDTH 9 0
BBX 7 12 1 -3
BITMAP
D8
FC
EE
C6
C6
C6
EE
FC
D8
C0
C0
C0
ENDCHAR

STARTCHAR q
ENCODING 113
SWIDTH 501 0
DWIDTH 9 0
BBX 7 12 1 -3
BITMAP
36
7E
EE
C6
C6
C6
EE
7E
36
06
06
06
ENDCHAR

STARTCHAR r
ENCODING 114
SWIDTH 319 0
DWIDTH 5 0
BBX 5 9 1 0
BITMAP
D8
F8
E0
C0
C0
C0
C0
C0
C0
ENDCHAR

STARTCHAR s
ENCODING 115
SWIDTH 456 0
DWIDTH 8 0
BBX 6 9 1 0
BITMAP
38
7C
CC
E0
78
1C
CC
FC
78
ENDCHAR

STARTCHAR t
ENCODING 116
SWIDTH 273 0
DWIDTH 4 0
BBX 4 12 0 0
BITMAP
60
60
60
F0
F0
60
60
60
60
60
70
30
ENDCHAR

STARTCHAR u
ENCODING 117
SWIDTH 501 0
DWIDTH 9 0
BBX 7 9 1 0
BITMAP
C6
C6
C6
C6
C6
C6
CE
FE
76
ENDCHAR

STARTCHAR v
ENCODING 118
SWIDTH 456 0
DWIDTH 8 0
BBX 8 9 0 0
BITMAP
C3
C3
66
66
66
3C
3C
18
18
ENDCHAR

STARTCHAR w
ENCODING 119
SWIDTH 638 0
DWIDTH 11 0
BBX 11 9 0 0
BITMAP
C460
C460
6EC0
6AC0
6AC0
3B80
3B80
3180
3180
ENDCHAR

STARTCHAR x
ENCODING 120
SWIDTH 456 0
DWIDTH 7 0
BBX 7 9 0 0
BITMAP
C6
C6
6C
7C
38
7C
6C
C6
C6
ENDCHAR

STARTCHAR y
ENCODING 121
SWIDTH 456 0
DWIDTH 8 0
BBX 8 12 0 -3
BITMAP
C3
C3
66
66
66
3C
3C
18
18
30
F0
E0
ENDCHAR

STARTCHAR z
ENCODING 122
SWIDTH 410 0
DWIDTH 8 0
BBX 6 9 1 0
BITMAP
FC
FC
0C
18
30
60
C0
FC
FC
ENDCHAR

STARTCHAR braceleft
ENCODING 123
SWIDTH 319 0
DWIDTH 5 0
BBX 4 16 1 -4
BITMAP
30
70
60
60
60
60
60
C0
C0
60
60
60
60
60
70
30
ENDCHAR

STARTCHAR bar
ENCODING 124
SWIDTH 230 0
DWIDTH 4 0
BBX 2 16 1 -4
BITMAP
C0
C0
C0
C0
C0
C0
C0
C0
C0
C0
C0
C0
C0
C0
C0
C0
ENDCHAR

STARTCHAR braceright
ENCODING 125
SWIDTH 319 0
DWIDTH 5 0
BBX 4 16 1 -4
BITMAP
C0
E0
60
60
60
60
60
30
30
60
60
60
60
60
E0
C0
ENDCHAR

STARTCHAR asciitilde
ENCODING 126
SWIDTH 479 0
DWIDTH 8 0
BBX 8 3 0 4
BITMAP
71
FF
8E
ENDCHAR

STARTCHAR space
ENCODING 160
SWIDTH 228 0
DWIDTH 5 0
BBX 0 0 0 0
BITMAP
ENDCHAR

STARTCHAR exclamdown
ENCODING 161
SWIDTH 273 0
DWIDTH 5 0
BBX 2 12 2 -4
BITMAP
C0
C0
00
C0
C0
C0
C0
C0
C0
C0
C0
C0
ENDCHAR

STARTCHAR cent
ENCODING 162
SWIDTH 456 0
DWIDTH 8 0
BBX 7 16 1 -3
BITMAP
04
04
08
08
3C
7E
EE
D0
D0
D6
EE
7C
38
20
40
40
ENDCHAR

STARTCHAR sterling
ENCODING 163
SWIDTH 456 0
DWIDTH 8 0
BBX 8 12 0 0
BITMAP
1C
3E
66
66
60
FC
FC
30
30
60
FF
FE
ENDCHAR

STARTCHAR currency
ENCODING 164
SWIDTH 456 0
DWIDTH 8 0
BBX 6 9 1 2
BITMAP
48
FC
78
CC
CC
CC
78
FC
48
ENDCHAR

STARTCHAR yen
ENCODING 165
SWIDTH 456 0
DWIDTH 8 0
BBX 8 12 0 0
BITMAP
E7
66
66
3C
18
FF
FF
18
FF
FF
18
18
ENDCHAR

STARTCHAR brokenbar
ENCODING 166
SWIDTH 230 0
DWIDTH 4 0
BBX 2 17 1 -5
BITMAP
C0
C0
C0
C0
C0
C0
C0
00
00
00
C0
C0
C0
C0
C0
C0
C0
ENDCHAR

STARTCHAR section
ENCODING 167
SWIDTH 456 0
DWIDTH 8 0
BBX 7 16 1 -4
BITMAP
3C
7E
76
60
38
7C
CE
C6
E6
76
3C
1E
0E
66
7E
3C
ENDCHAR

STARTCHAR dieresis
ENCODING 168
SWIDTH 273 0
DWIDTH 5 0
BBX 5 2 0 10
BITMAP
D8
D8
ENDCHAR

STARTCHAR copyright
ENCODING 169
SWIDTH 604 0
DWIDTH 10 0
BBX 11 13 0 -1
BITMAP
1F00
3F80
60C0
6EC0
DF60
DB60
D860
DB60
DF60
6EC0
60C0
3F80
1F00
ENDCHAR

STARTCHAR ordfeminine
ENCODING 170
SWIDTH 303 0
DWIDTH 5 0
BBX 4 6 1 6
BITMAP
E0
B0
70
D0
F0
50
ENDCHAR

STARTCHAR guillemotleft
ENCODING 171
SWIDTH 456 0
DWIDTH 8 0
BBX 7 8 1 0
BITMAP
36
6C
6C
D8
6C
6C
6C
36
ENDCHAR

STARTCHAR logicalnot
ENCODING 172
SWIDTH 479 0
DWIDTH 8 0
BBX 7 6 1 3
BITMAP
FE
FE
06
06
06
06
ENDCHAR

STARTCHAR hyphen
ENCODING 173
SWIDTH 273 0
DWIDTH 5 0
BBX 4 2 1 9
BITMAP
F0
F0
ENDCHAR

STARTCHAR registered
ENCODING 174
SWIDTH 604 0
DWIDTH 10 0
BBX 11 13 0 -1
BITMAP
1F00
3F80
60C0
7CC0
DE60
DB60
DE60
DE60
DB60
7BC0
60C0
3F80
1F00
ENDCHAR

STARTCHAR macron
ENCODING 175
SWIDTH 273 0
DWIDTH 5 0
BBX 5 2 0 10
BITMAP
F8
F8
ENDCHAR

STARTCHAR degree
ENCODING 176
SWIDTH 328 0
DWIDTH 6 0
BBX 5 5 1 7
BITMAP
70
D8
D8
D8
70
ENDCHAR

STARTCHAR plusminus
ENCODING 177
SWIDTH 479 0
DWIDTH 8 0
BBX 6 11 1 1
BITMAP
30
30
30
FC
FC
30
30
30
00
FC
FC
ENDCHAR

STARTCHAR twosuperior
ENCODING 178
SWIDTH 273 0
DWIDTH 5 0
BBX 4 6 1 6
BITMAP
60
F0
B0
60
F0
F0
ENDCHAR

STARTCHAR threesuperior
ENCODING 179
SWIDTH 273 0
DWIDTH 5 0
BBX 4 6 1 6
BITMAP
E0
30
60
30
F0
E0
ENDCHAR

STARTCHAR acute
ENCODING 180
SWIDTH 273 0
DWIDTH 5 0
BBX 4 3 1 10
BITMAP
30
60
C0
ENDCHAR

STARTCHAR mu
ENCODING 181
SWIDTH 501 0
DWIDTH 9 0
BBX 7 12 1 -3
BITMAP
C6
C6
C6
C6
C6
C6
EE
FE
DA
C0
C0
C0
ENDCHAR

STARTCHAR paragraph
ENCODING 182
SWIDTH 456 0
DWIDTH 8 0
BBX 9 16 0 -4
BITMAP
3F80
7F80
FB00
FB00
FB00
7B00
3B00
1B00
1B00
1B00
1B00
1B00
1B00
1B00
1B00
1B00
ENDCHAR

STARTCHAR periodcentered
ENCODING 183
SWIDTH 228 0
DWIDTH 4 0
BBX 2 2 1 5
BITMAP
C0
C0
ENDCHAR

STARTCHAR cedilla
ENCODING 184
SWIDTH 273 0
DWIDTH 5 0
BBX 4 3 1 -3
BITMAP
E0
30
E0
ENDCHAR

STARTCHAR onesuperior
ENCODING 185
SWIDTH 273 0
DWIDTH 5 0
BBX 3 6 1 6
BITMAP
60
E0
60
60
60
60
ENDCHAR

STARTCHAR ordmasculine
ENCODING 186
SWIDTH 299 0
DWIDTH 5 0
BBX 5 6 0 6
BITMAP
70
F8
D8
D8
F8
70
ENDCHAR

STARTCHAR guillemotright
ENCODING 187
SWIDTH 456 0
DWIDTH 8 0
BBX 7 8 1 0
BITMAP
D8
6C
6C
6C
36
6C
6C
D8
ENDCHAR

STARTCHAR onequarter
ENCODING 188
SWIDTH 684 0
DWIDTH 12 0
BBX 10 13 1 -1
BITMAP
6300
E300
6600
6600
6C00
6C00
1800
1980
3380
3580
6FC0
6FC0
6180
ENDCHAR

STARTCHAR onehalf
ENCODING 189
SWIDTH 684 0
DWIDTH 12 0
BBX 10 13 1 -1
BITMAP
6300
E300
6600
6600
6C00
6C00
1800
1980
33C0
32C0
6180
63C0
63C0
ENDCHAR

STARTCHAR threequarters
ENCODING 190
SWIDTH 684 0
DWIDTH 12 0
BBX 10 13 1 -1
BITMAP
E300
3300
6600
3600
FC00
EC00
1800
1980
3380
3580
6FC0
6FC0
6180
ENDCHAR

STARTCHAR questiondown
ENCODING 191
SWIDTH 501 0
DWIDTH 9 0
BBX 8 12 1 -3
BITMAP
18
18
00
18
18
38
70
E0
C3
C6
7E
3C
ENDCHAR

STARTCHAR Agrave
ENCODING 192
SWIDTH 592 0
DWIDTH 10 0
BBX 10 15 0 0
BITMAP
1800
0C00
0000
0C00
0C00
1E00
1E00
3300
3300
3300
7F80
7F80
6180
C0C0
C0C0
ENDCHAR

STARTCHAR Aacute
ENCODING 193
SWIDTH 592 0
DWIDTH 10 0
BBX 10 15 0 0
BITMAP
0600
0C00
0000
0C00
0C00
1E00
1E00
3300
3300
3300
7F80
7F80
6180
C0C0
C0C0
ENDCHAR

STARTCHAR Acircumflex
ENCODING 194
SWIDTH 592 0
DWIDTH 10 0
BBX 10 16 0 0
BITMAP
0400
0E00
1B00
0000
0C00
0C00
1E00
1E00
3300
3300
3300
7F80
7F80
6180
C0C0
C0C0
ENDCHAR

STARTCHAR Atilde
ENCODING 195
SWIDTH 592 0
DWIDTH 10 0
BBX 10 16 0 0
BITMAP
1900
3F00
2600
0000
0C00
0C00
1E00
1E00
3300
3300
3300
7F80
7F80
6180
C0C0
C0C0
ENDCHAR

STARTCHAR Adieresis
ENCODING 196
SWIDTH 592 0
DWIDTH 10 0
BBX 10 15 0 0
BITMAP
3300
3300
0000
0C00
0C00
1E00
1E00
3300
3300
3300
7F80
7F80
6180
C0C0
C0C0
ENDCHAR

STARTCHAR Aring
ENCODING 197
SWIDTH 592 0
DWIDTH 10 0
BBX 10 16 0 0
BITMAP
0C00
1200
1200
1E00
0C00
0C00
1E00
1E00
3300
3300
3300
7F80
7F80
6180
C0C0
C0C0
ENDCHAR

STARTCHAR AE
ENCODING 198
SWIDTH 820 0
DWIDTH 14 0
BBX 13 12 1 0
BITMAP
0FF8
0FF8
1F00
1B00
3300
33F8
33F8
7F00
7F00
6300
E3F8
C3F8
ENDCHAR

STARTCHAR Ccedilla
ENCODING 199
SWIDTH 592 0
DWIDTH 10 0
BBX 8 16 1 -4
BITMAP
3C
7E
66
C3
C0
C0
C0
C0
C3
66
7E
3C
18
0C
0C
38
ENDCHAR

STARTCHAR Egrave
ENCODING 200
SWIDTH 547 0
DWIDTH 9 0
BBX 7 15 1 0
BITMAP
30
18
00
FE
FE
C0
C0
C0
FE
FE
C0
C0
C0
FE
FE
ENDCHAR

STARTCHAR Eacute
ENCODING 201
SWIDTH 547 0
DWIDTH 9 0
BBX 7 15 1 0
BITMAP
18
30
00
FE
FE
C0
C0
C0
FE
FE
C0
C0
C0
FE
FE
ENDCHAR

STARTCHAR Ecircumflex
ENCODING 202
SWIDTH 547 0
DWIDTH 9 0
BBX 7 16 1 0
BITMAP
10
38
6C
00
FE
FE
C0
C0
C0
FE
FE
C0
C0
C0
FE
FE
ENDCHAR

STARTCHAR Edieresis
ENCODING 203
SWIDTH 547 0
DWIDTH 9 0
BBX 7 15 1 0
BITMAP
6C
6C
00
FE
FE
C0
C0
C0
FE
FE
C0
C0
C0
FE
FE
ENDCHAR

STARTCHAR Igrave
ENCODING 204
SWIDTH 228 0
DWIDTH 4 0
BBX 3 15 0 0
BITMAP
C0
60
00
60
60
60
60
60
60
60
60
60
60
60
60
ENDCHAR

STARTCHAR Iacute
ENCODING 205
SWIDTH 228 0
DWIDTH 4 0
BBX 3 15 1 0
BITMAP
60
C0
00
C0
C0
C0
C0
C0
C0
C0
C0
C0
C0
C0
C0
ENDCHAR

STARTCHAR Icircumflex
ENCODING 206
SWIDTH 228 0
DWIDTH 4 0
BBX 5 16 0 0
BITMAP
20
70
D8
00
60
60
60
60
60
60
60
60
60
60
60
60
ENDCHAR

STARTCHAR Idieresis
ENCODING 207
SWIDTH 228 0
DWIDTH 4 0
BBX 5 15 0 0
BITMAP
D8
D8
00
60
60
60
60
60
60
60
60
60
60
60
60
ENDCHAR

STARTCHAR Gbreve
ENCODING 208
SWIDTH 641 0
DWIDTH 11 0
BBX 9 16 1 0
BITMAP
3600
1C00
0800
0000
3E00
7F00
6300
C180
C000
C000
C780
C780
C180
6180
7F00
3E00
ENDCHAR

STARTCHAR Ntilde
ENCODING 209
SWIDTH 592 0
DWIDTH 10 0
BBX 8 16 1 0
BITMAP
32
7E
4C
00
C3
E3
E3
F3
FB
DB
DF
CF
CF
C7
C7
C3
ENDCHAR

STARTCHAR Ograve
ENCODING 210
SWIDTH 638 0
DWIDTH 11 0
BBX 9 15 1 0
BITMAP
1800
0C00
0000
3E00
7F00
6300
C180
C180
C180
C180
C180
C180
6300
7F00
3E00
ENDCHAR

STARTCHAR Oacute
ENCODING 211
SWIDTH 638 0
DWIDTH 11 0
BBX 9 15 1 0
BITMAP
0C00
1800
0000
3E00
7F00
6300
C180
C180
C180
C180
C180
C180
6300
7F00
3E00
ENDCHAR

STARTCHAR Ocircumflex
ENCODING 212
SWIDTH 638 0
DWIDTH 11 0
BBX 9 16 1 0
BITMAP
0800
1C00
3600
0000
3E00
7F00
6300
C180
C180
C180
C180
C180
C180
6300
7F00
3E00
ENDCHAR

STARTCHAR Otilde
ENCODING 213
SWIDTH 638 0
DWIDTH 11 0
BBX 9 16 1 0
BITMAP
1900
3F00
2600
0000
3E00
7F00
6300
C180
C180
C180
C180
C180
C180
6300
7F00
3E00
ENDCHAR

STARTCHAR Odieresis
ENCODING 214
SWIDTH 638 0
DWIDTH 11 0
BBX 9 15 1 0
BITMAP
3600
3600
0000
3E00
7F00
6300
C180
C180
C180
C180
C180
C180
6300
7F00
3E00
ENDCHAR

STARTCHAR multiply
ENCODING 215
SWIDTH 479 0
DWIDTH 8 0
BBX 6 8 1 2
BITMAP
CC
CC
78
30
78
CC
CC
CC
ENDCHAR

STARTCHAR Oslash
ENCODING 216
SWIDTH 638 0
DWIDTH 11 0
BBX 9 12 1 0
BITMAP
3E80
7F00
6300
C780
CD80
C980
D980
D180
F180
6300
7F00
BE00
ENDCHAR

STARTCHAR Ugrave
ENCODING 217
SWIDTH 592 0
DWIDTH 10 0
BBX 8 15 1 0
BITMAP
30
18
00
C3
C3
C3
C3
C3
C3
C3
C3
C3
E7
7E
3C
ENDCHAR

STARTCHAR Uacute
ENCODING 218
SWIDTH 592 0
DWIDTH 10 0
BBX 8 15 1 0
BITMAP
0C
18
00
C3
C3
C3
C3
C3
C3
C3
C3
C3
E7
7E
3C
ENDCHAR

STARTCHAR Ucircumflex
ENCODING 219
SWIDTH 592 0
DWIDTH 10 0
BBX 8 16 1 0
BITMAP
08
1C
36
00
C3
C3
C3
C3
C3
C3
C3
C3
C3
E7
7E
3C
ENDCHAR

STARTCHAR Udieresis
ENCODING 220
SWIDTH 592 0
DWIDTH 10 0
BBX 8 15 1 0
BITMAP
66
66
00
C3
C3
C3
C3
C3
C3
C3
C3
C3
E7
7E
3C
ENDCHAR

STARTCHAR Idotaccent
ENCODING 221
SWIDTH 228 0
DWIDTH 4 0
BBX 2 15 1 0
BITMAP
C0
C0
00
C0
C0
C0
C0
C0
C0
C0
C0
C0
C0
C0
C0
ENDCHAR

STARTCHAR Scedilla
ENCODING 222
SWIDTH 547 0
DWIDTH 9 0
BBX 7 16 1 -4
BITMAP
3C
7E
C6
C6
E0
78
3C
0E
C6
C6
FC
78
30
18
18
70
ENDCHAR

STARTCHAR germandbls
ENCODING 223
SWIDTH 501 0
DWIDTH 9 0
BBX 7 12 1 0
BITMAP
78
FC
CC
CC
D8
D8
CC
C6
C6
CE
DC
D8
ENDCHAR

STARTCHAR agrave
ENCODING 224
SWIDTH 456 0
DWIDTH 8 0
BBX 6 12 1 0
BITMAP
30
18
00
38
7C
CC
1C
7C
CC
DC
FC
6C
ENDCHAR

STARTCHAR aacute
ENCODING 225
SWIDTH 456 0
DWIDTH 8 0
BBX 6 12 1 0
BITMAP
18
30
00
38
7C
CC
1C
7C
CC
DC
FC
6C
ENDCHAR

STARTCHAR acircumflex
ENCODING 226
SWIDTH 456 0
DWIDTH 8 0
BBX 6 13 1 0
BITMAP
10
38
6C
00
38
7C
CC
1C
7C
CC
DC
FC
6C
ENDCHAR

STARTCHAR atilde
ENCODING 227
SWIDTH 456 0
DWIDTH 8 0
BBX 6 12 1 0
BITMAP
74
B8
00
38
7C
CC
1C
7C
CC
DC
FC
6C
ENDCHAR

STARTCHAR adieresis
ENCODING 228
SWIDTH 456 0
DWIDTH 8 0
BBX 6 12 1 0
BITMAP
6C
6C
00
38
7C
CC
1C
7C
CC
DC
FC
6C
ENDCHAR

STARTCHAR aring
ENCODING 229
SWIDTH 456 0
DWIDTH 8 0
BBX 6 14 1 0
BITMAP
38
6C
6C
38
00
38
7C
CC
1C
7C
CC
DC
FC
6C
ENDCHAR

STARTCHAR ae
ENCODING 230
SWIDTH 729 0
DWIDTH 12 0
BBX 11 9 1 0
BITMAP
3B80
7FC0
CC60
1FE0
7FE0
CC00
DE60
FFC0
6D80
ENDCHAR

STARTCHAR ccedilla
ENCODING 231
SWIDTH 456 0
DWIDTH 8 0
BBX 6 13 1 -4
BITMAP
38
7C
EC
C0
C0
C0
EC
7C
38
30
18
18
70
ENDCHAR

STARTCHAR egrave
ENCODING 232
SWIDTH 456 0
DWIDTH 8 0
BBX 6 12 1 0
BITMAP
60
30
00
30
78
CC
CC
FC
C0
EC
7C
38
ENDCHAR

STARTCHAR eacute
ENCODING 233
SWIDTH 456 0
DWIDTH 8 0
BBX 6 12 1 0
BITMAP
18
30
00
30
78
CC
CC
FC
C0
EC
7C
38
ENDCHAR

STARTCHAR ecircumflex
ENCODING 234
SWIDTH 456 0
DWIDTH 8 0
BBX 6 13 1 0
BITMAP
10
38
6C
00
30
78
CC
CC
FC
C0
EC
7C
38
ENDCHAR

STARTCHAR edieresis
ENCODING 235
SWIDTH 456 0
DWIDTH 8 0
BBX 6 12 1 0
BITMAP
CC
CC
00
30
78
CC
CC
FC
C0
EC
7C
38
ENDCHAR

STARTCHAR igrave
ENCODING 236
SWIDTH 228 0
DWIDTH 4 0
BBX 3 12 0 0
BITMAP
C0
60
00
60
60
60
60
60
60
60
60
60
ENDCHAR

STARTCHAR iacute
ENCODING 237
SWIDTH 228 0
DWIDTH 4 0
BBX 3 12 1 0
BITMAP
60
C0
00
C0
C0
C0
C0
C0
C0
C0
C0
C0
ENDCHAR

STARTCHAR icircumflex
ENCODING 238
SWIDTH 228 0
DWIDTH 4 0
BBX 5 13 0 0
BITMAP
20
70
D8
00
60
60
60
60
60
60
60
60
60
ENDCHAR

STARTCHAR idieresis
ENCODING 239
SWIDTH 228 0
DWIDTH 4 0
BBX 5 12 0 0
BITMAP
D8
D8
00
60
60
60
60
60
60
60
60
60
ENDCHAR

STARTCHAR gbreve
ENCODING 240
SWIDTH 501 0
DWIDTH 9 0
BBX 7 15 1 -3
BITMAP
6C
38
00
36
7E
EE
C6
C6
C6
EE
7E
36
CE
FC
38
ENDCHAR

STARTCHAR ntilde
ENCODING 241
SWIDTH 501 0
DWIDTH 9 0
BBX 7 13 1 0
BITMAP
32
7E
4C
00
DC
FE
E6
C6
C6
C6
C6
C6
C6
ENDCHAR

STARTCHAR ograve
ENCODING 242
SWIDTH 501 0
DWIDTH 9 0
BBX 7 12 1 0
BITMAP
30
18
00
38
7C
EE
C6
C6
C6
EE
7C
38
ENDCHAR

STARTCHAR oacute
ENCODING 243
SWIDTH 501 0
DWIDTH 9 0
BBX 7 12 1 0
BITMAP
18
30
00
38
7C
EE
C6
C6
C6
EE
7C
38
ENDCHAR

STARTCHAR ocircumflex
ENCODING 244
SWIDTH 501 0
DWIDTH 9 0
BBX 7 13 1 0
BITMAP
10
38
6C
00
38
7C
EE
C6
C6
C6
EE
7C
38
ENDCHAR

STARTCHAR otilde
ENCODING 245
SWIDTH 501 0
DWIDTH 9 0
BBX 7 13 1 0
BITMAP
32
7E
4C
00
38
7C
EE
C6
C6
C6
EE
7C
38
ENDCHAR

STARTCHAR odieresis
ENCODING 246
SWIDTH 501 0
DWIDTH 9 0
BBX 7 12 1 0
BITMAP
6C
6C
00
38
7C
EE
C6
C6
C6
EE
7C
38
ENDCHAR

STARTCHAR divide
ENCODING 247
SWIDTH 479 0
DWIDTH 8 0
BBX 6 8 1 2
BITMAP
30
30
00
FC
FC
00
30
30
ENDCHAR

STARTCHAR oslash
ENCODING 248
SWIDTH 501 0
DWIDTH 9 0
BBX 7 9 1 0
BITMAP
3A
7C
EE
DE
D6
F6
EE
7C
B8
ENDCHAR

STARTCHAR ugrave
ENCODING 249
SWIDTH 501 0
DWIDTH 9 0
BBX 7 12 1 0
BITMAP
30
18
00
C6
C6
C6
C6
C6
C6
CE
FE
76
ENDCHAR

STARTCHAR uacute
ENCODING 250
SWIDTH 501 0
DWIDTH 9 0
BBX 7 12 1 0
BITMAP
18
30
00
C6
C6
C6
C6
C6
C6
CE
FE
76
ENDCHAR

STARTCHAR ucircumflex
ENCODING 251
SWIDTH 501 0
DWIDTH 9 0
BBX 7 13 1 0
BITMAP
10
38
6C
00
C6
C6
C6
C6
C6
C6
CE
FE
76
ENDCHAR

STARTCHAR udieresis
ENCODING 252
SWIDTH 501 0
DWIDTH 9 0
BBX 7 12 1 0
BITMAP
6C
6C
00
C6
C6
C6
C6
C6
C6
CE
FE
76
ENDCHAR

STARTCHAR dotlessi
ENCODING 253
SWIDTH 228 0
DWIDTH 4 0
BBX 2 9 1 0
BITMAP
C0
C0
C0
C0
C0
C0
C0
C0
C0
ENDCHAR

STARTCHAR scedilla
ENCODING 254
SWIDTH 456 0
DWIDTH 8 0
BBX 6 13 1 -4
BITMAP
38
7C
CC
E0
78
1C
CC
FC
78
30
18
18
70
ENDCHAR

STARTCHAR ydieresis
ENCODING 255
SWIDTH 456 0
DWIDTH 8 0
BBX 8 15 0 -3
BITMAP
66
66
00
C3
C3
66
66
66
3C
3C
18
18
30
F0
E0
ENDCHAR
ENDFONT
